<svg width="24" height="24" viewBox="0 0 24 24" fill="none" xmlns="http://www.w3.org/2000/svg">
<path d="M10 13L9.58175 12.5698L10 12.1632L10.4182 12.5698L10 13ZM10.6 20C10.6 20.3314 10.3314 20.6 10 20.6C9.66863 20.6 9.4 20.3314 9.4 20L10.6 20ZM5.58175 16.4587L9.58175 12.5698L10.4182 13.4302L6.41825 17.3191L5.58175 16.4587ZM10.4182 12.5698L14.4182 16.4587L13.5818 17.3191L9.58175 13.4302L10.4182 12.5698ZM10.6 13L10.6 20L9.4 20L9.4 13L10.6 13Z" fill="#656565"/>
<path d="M14 11L13.5818 11.4302L14 11.8368L14.4182 11.4302L14 11ZM14.6 4C14.6 3.66863 14.3314 3.4 14 3.4C13.6686 3.4 13.4 3.66863 13.4 4L14.6 4ZM9.58175 7.54131L13.5818 11.4302L14.4182 10.5698L10.4182 6.68091L9.58175 7.54131ZM14.4182 11.4302L18.4182 7.54131L17.5818 6.68091L13.5818 10.5698L14.4182 11.4302ZM14.6 11L14.6 4L13.4 4L13.4 11L14.6 11Z" fill="#656565"/>
</svg>
