<svg width="14" height="14" viewBox="0 0 14 14" fill="none" xmlns="http://www.w3.org/2000/svg">
<path fill-rule="evenodd" clip-rule="evenodd" d="M5.5859 7.00012L0.636155 2.05037C0.245631 1.65984 0.245631 1.02668 0.636155 0.636155C1.02668 0.245631 1.65984 0.245631 2.05037 0.636155L7.00012 5.5859L11.9499 0.636155C12.3404 0.245631 12.9736 0.245631 13.3641 0.636155C13.7546 1.02668 13.7546 1.65984 13.3641 2.05037L8.41433 7.00012L13.3641 11.9499C13.7546 12.3404 13.7546 12.9736 13.3641 13.3641C12.9736 13.7546 12.3404 13.7546 11.9499 13.3641L7.00012 8.41433L2.05037 13.3641C1.65984 13.7546 1.02668 13.7546 0.636155 13.3641C0.245631 12.9736 0.245631 12.3404 0.636155 11.9499L5.5859 7.00012Z" fill="#A0A0A0"/>
</svg>
