<svg width="24" height="24" viewBox="0 0 24 24" fill="none" xmlns="http://www.w3.org/2000/svg">
<circle cx="12" cy="12" r="11.5" stroke="#703CDE"/>
<path d="M14.7067 12.4513H12.4511V14.7069C12.4511 14.9551 12.2481 15.1581 11.9999 15.1581C11.7518 15.1581 11.5488 14.9551 11.5488 14.7069V12.4513H9.29317C9.04505 12.4513 8.84204 12.2483 8.84204 12.0002C8.84204 11.7521 9.04505 11.5491 9.29317 11.5491H11.5488V9.29341C11.5488 9.04529 11.7518 8.84229 11.9999 8.84229C12.2481 8.84229 12.4511 9.04529 12.4511 9.29341V11.5491H14.7067C14.9548 11.5491 15.1578 11.7521 15.1578 12.0002C15.1578 12.2483 14.9548 12.4513 14.7067 12.4513Z" fill="#703CDE"/>
</svg>
