<svg width="16" height="16" viewBox="0 0 16 16" fill="none" xmlns="http://www.w3.org/2000/svg">
<g clip-path="url(#clip0_3814_4350)">
<path fill-rule="evenodd" clip-rule="evenodd" d="M8.20414 15.8717C4.00446 15.8717 0.535156 12.4024 0.535156 8.20268C0.535156 4.00299 3.99857 0.533691 8.19825 0.533691C12.3979 0.533691 15.8731 4.00299 15.8731 8.20268C15.8731 12.4024 12.4038 15.8717 8.20414 15.8717ZM7.26119 12.0547C7.47912 12.0547 7.66761 11.9545 7.80897 11.7366L11.7672 5.53426C11.8555 5.40468 11.9321 5.24565 11.9321 5.10428C11.9321 4.7921 11.6552 4.59773 11.3666 4.59773C11.1958 4.59773 11.025 4.69786 10.8954 4.89813L7.23174 10.7235L5.2821 8.27908C5.12895 8.0847 4.96992 8.01402 4.78143 8.01402C4.49281 8.01402 4.25132 8.24374 4.25132 8.55591C4.25132 8.70317 4.31022 8.8622 4.41035 8.9859L6.68395 11.7425C6.86655 11.9663 7.04325 12.0547 7.26119 12.0547Z" fill="#F33D63"/>
</g>
<defs>
<clipPath id="clip0_3814_4350">
<rect width="15.338" height="15.338" fill="white" transform="translate(0.533203 0.533691)"/>
</clipPath>
</defs>
</svg>
