<svg width="30" height="28" viewBox="0 0 30 28" fill="none" xmlns="http://www.w3.org/2000/svg">
<path fill-rule="evenodd" clip-rule="evenodd" d="M21.484 7.38368V7.21994C21.484 6.45097 22.1004 5.82761 22.8726 5.82761C23.6394 5.82761 24.2611 6.44314 24.2611 7.21994V9.8487L26.4602 11.8006C27.2882 12.5356 27.0673 13.1315 25.9687 13.1315H24.2611V24.0003C24.2611 24.5524 23.8035 25 23.2657 25H6.74269C6.19296 25 5.74731 24.5539 5.74731 24.0003V13.1315H4.03095C2.93146 13.1315 2.70962 12.5372 3.53944 11.8006L14.247 2.29624C14.6628 1.92721 15.3332 1.92396 15.7526 2.29624L21.484 7.38368ZM17.7813 15.4138V22.1241H21.484V15.4138H17.7813Z" />
</svg>
