<svg width="30" height="28" viewBox="0 0 30 28" fill="none" xmlns="http://www.w3.org/2000/svg">
<path fill-rule="evenodd" clip-rule="evenodd" d="M4 4.99961C4 3.89526 4.88743 3 5.99961 3H12.0004C13.1047 3 14 3.88743 14 4.99961V11.0004C14 12.1047 13.1126 13 12.0004 13H5.99961C4.89526 13 4 12.1126 4 11.0004V4.99961ZM16 4.99961C16 3.89526 16.8874 3 17.9996 3H24.0004C25.1047 3 26 3.88743 26 4.99961V11.0004C26 12.1047 25.1126 13 24.0004 13H17.9996C16.8953 13 16 12.1126 16 11.0004V4.99961ZM16 16.9996C16 15.8953 16.8874 15 17.9996 15H24.0004C25.1047 15 26 15.8874 26 16.9996V23.0004C26 24.1047 25.1126 25 24.0004 25H17.9996C16.8953 25 16 24.1126 16 23.0004V16.9996ZM4 16.9996C4 15.8953 4.88743 15 5.99961 15H12.0004C13.1047 15 14 15.8874 14 16.9996V23.0004C14 24.1047 13.1126 25 12.0004 25H5.99961C4.89526 25 4 24.1126 4 23.0004V16.9996Z" />
</svg>
