<svg width="82" height="82" viewBox="0 0 82 82" fill="none" xmlns="http://www.w3.org/2000/svg">
<circle cx="41" cy="41" r="41" fill="#703CDE"/>
<g clip-path="url(#clip0_676_3167)">
<path d="M48.9998 42.3333H42.3332V49C42.3332 49.7333 41.7332 50.3333 40.9998 50.3333C40.2665 50.3333 39.6665 49.7333 39.6665 49V42.3333H32.9998C32.2665 42.3333 31.6665 41.7333 31.6665 41C31.6665 40.2667 32.2665 39.6667 32.9998 39.6667H39.6665V33C39.6665 32.2667 40.2665 31.6667 40.9998 31.6667C41.7332 31.6667 42.3332 32.2667 42.3332 33V39.6667H48.9998C49.7332 39.6667 50.3332 40.2667 50.3332 41C50.3332 41.7333 49.7332 42.3333 48.9998 42.3333Z" fill="white"/>
</g>
<defs>
<clipPath id="clip0_676_3167">
<rect width="32" height="32" fill="white" transform="translate(25 25)"/>
</clipPath>
</defs>
</svg>
