<svg width="30" height="28" viewBox="0 0 30 28" fill="none" xmlns="http://www.w3.org/2000/svg">
<path fill-rule="evenodd" clip-rule="evenodd" d="M6.5 18C8.433 18 10 16.433 10 14.5C10 12.567 8.433 11 6.5 11C4.567 11 3 12.567 3 14.5C3 16.433 4.567 18 6.5 18ZM15.5 18C17.433 18 19 16.433 19 14.5C19 12.567 17.433 11 15.5 11C13.567 11 12 12.567 12 14.5C12 16.433 13.567 18 15.5 18ZM28 14.5C28 16.433 26.433 18 24.5 18C22.567 18 21 16.433 21 14.5C21 12.567 22.567 11 24.5 11C26.433 11 28 12.567 28 14.5Z" />
</svg>
