<svg width="30" height="30" viewBox="0 0 30 30" fill="none" xmlns="http://www.w3.org/2000/svg">
<path fill-rule="evenodd" clip-rule="evenodd" d="M13.5854 15L8.63567 10.0502C8.24514 9.65972 8.24514 9.02656 8.63567 8.63603C9.02619 8.24551 9.65936 8.24551 10.0499 8.63603L14.9996 13.5858L19.9494 8.63603C20.3399 8.24551 20.9731 8.24551 21.3636 8.63603C21.7541 9.02656 21.7541 9.65972 21.3636 10.0502L16.4138 15L21.3636 19.9497C21.7541 20.3403 21.7541 20.9734 21.3636 21.364C20.9731 21.7545 20.3399 21.7545 19.9494 21.364L14.9996 16.4142L10.0499 21.364C9.65936 21.7545 9.02619 21.7545 8.63567 21.364C8.24514 20.9734 8.24514 20.3403 8.63567 19.9497L13.5854 15Z" fill="#A0A0A0"/>
</svg>
