<svg width="14" height="14" viewBox="0 0 14 14" fill="none" xmlns="http://www.w3.org/2000/svg">
<path fill-rule="evenodd" clip-rule="evenodd" d="M5.58639 7.00012L0.636643 2.05037C0.246119 1.65984 0.246119 1.02668 0.636643 0.636155C1.02717 0.245631 1.66033 0.245631 2.05086 0.636155L7.0006 5.5859L11.9504 0.636155C12.3409 0.245631 12.974 0.245631 13.3646 0.636155C13.7551 1.02668 13.7551 1.65984 13.3646 2.05037L8.41482 7.00012L13.3646 11.9499C13.7551 12.3404 13.7551 12.9736 13.3646 13.3641C12.974 13.7546 12.3409 13.7546 11.9504 13.3641L7.0006 8.41433L2.05086 13.3641C1.66033 13.7546 1.02717 13.7546 0.636643 13.3641C0.246119 12.9736 0.246119 12.3404 0.636643 11.9499L5.58639 7.00012Z" fill="#121212"/>
</svg>
