<svg width="16" height="16" viewBox="0 0 16 16" fill="none" xmlns="http://www.w3.org/2000/svg">
<circle cx="8" cy="8" r="8" fill="#B8B8B8"/>
<path fill-rule="evenodd" clip-rule="evenodd" d="M4.71486 5.75227C4.42838 5.4658 4.42838 5.00133 4.71486 4.71486C5.00133 4.42838 5.4658 4.42838 5.75227 4.71486L11.2851 10.2477C11.5716 10.5342 11.5716 10.9987 11.2851 11.2851C10.9987 11.5716 10.5342 11.5716 10.2477 11.2851L4.71486 5.75227Z" fill="white"/>
<path fill-rule="evenodd" clip-rule="evenodd" d="M11.2851 5.75227L5.75227 11.2851C5.4658 11.5716 5.00133 11.5716 4.71486 11.2851C4.42838 10.9987 4.42838 10.5342 4.71486 10.2477L10.2477 4.71486C10.5342 4.42838 10.9987 4.42838 11.2851 4.71486C11.5716 5.00133 11.5716 5.4658 11.2851 5.75227Z" fill="white"/>
</svg>
