<svg width="11" height="11" viewBox="0 0 11 11" fill="none" xmlns="http://www.w3.org/2000/svg">
<g id="icon_plus">
<circle id="Ellipse 74" cx="5.5" cy="5.5" r="5.5" fill="#703CDE"/>
<path id="Shape" fill-rule="evenodd" clip-rule="evenodd" d="M8.44737 4.91743H6.05263V2.54702C6.05263 2.24506 5.80505 2 5.5 2C5.19495 2 4.94737 2.24506 4.94737 2.54702V4.91743H2.55263C2.24758 4.91743 2 5.1625 2 5.46445C2 5.76714 2.24758 6.01147 2.55263 6.01147H4.94737V8.38189C4.94737 8.68457 5.19495 8.92891 5.5 8.92891C5.80505 8.92891 6.05263 8.68457 6.05263 8.38189V6.01147H8.44737C8.75242 6.01147 9 5.76714 9 5.46445C9 5.1625 8.75242 4.91743 8.44737 4.91743" fill="white"/>
</g>
</svg>
