<svg width="14" height="14" viewBox="0 0 14 14" fill="none" xmlns="http://www.w3.org/2000/svg">
<path fill-rule="evenodd" clip-rule="evenodd" d="M13.7431 12.2642L9.91009 8.6427C10.5972 7.75766 10.9652 6.68767 10.9601 5.59025C10.947 2.72562 8.49372 0.40527 5.46059 0.388724C4.00907 0.382522 2.61522 0.924845 1.58953 1.89488C0.563845 2.86491 -0.00846493 4.18208 9.46502e-05 5.55295C0.0132044 8.41784 2.4667 10.7384 5.50009 10.7549C6.6668 10.7597 7.80387 10.4081 8.74159 9.75242L8.74559 9.74959L12.5751 13.3682C12.7821 13.5734 13.0907 13.6564 13.3811 13.5852C13.6716 13.5139 13.8983 13.2996 13.9735 13.0252C14.0487 12.7508 13.9605 12.4595 13.7431 12.2642ZM5.49626 9.71808C3.06967 9.70489 1.10691 7.84865 1.09626 5.55685C1.08971 4.4603 1.5476 3.40678 2.36799 2.63081C3.18838 1.85484 4.30319 1.42083 5.46426 1.42538C7.89085 1.43857 9.85361 3.29481 9.86426 5.58661C9.87081 6.68316 9.41292 7.73668 8.59253 8.51265C7.77214 9.28862 6.65733 9.72263 5.49626 9.71808Z" fill="#CECECE"/>
</svg>
