<svg width="1199" height="603" viewBox="0 0 1199 603" fill="none" xmlns="http://www.w3.org/2000/svg">
<rect width="1199" height="603" fill="#703CDE"/>
<path d="M335.477 186.012H332.033V209.322H334.427C338.501 209.322 342.827 209.112 347.909 208.146L347.573 205.164C343.079 206.046 339.089 206.298 335.477 206.34V186.012ZM358.829 181.434V196.764H353.495V182.274H350.261V217.176H353.495V199.62H358.829V219.066H362.147V181.434H358.829ZM409.021 194.454H387.601V192.186H407.803V188.154H387.601V186.054H408.727V181.854H382.099V198.654H409.021V194.454ZM381.637 212.22H402.889V219.654H408.433V207.852H381.637V212.22ZM377.731 201.006V205.416H412.717V201.006H377.731ZM443.626 190.002V192.858H436.738V190.002H443.626ZM431.32 195.42H423.97V191.22H431.32V195.42ZM436.738 197.058H443.626V200.796H449.17V180.972H443.626V185.802H436.738V182.526H431.32V187.062H423.97V182.526H418.468V199.746H436.738V197.058ZM429.178 214.866V212.598H449.17V202.266H423.634V206.55H443.668V208.608H423.718V219.15H450.262V214.866H429.178ZM478.693 185.004H470.041V180.888H464.455V185.004H455.887V189.33H478.651L478.693 185.004ZM463.069 198.15C463.069 196.05 464.791 194.916 467.269 194.916C469.705 194.916 471.469 196.05 471.469 198.15C471.469 200.292 469.705 201.426 467.269 201.426C464.791 201.426 463.069 200.292 463.069 198.15ZM476.761 198.15C476.761 193.782 472.813 190.716 467.269 190.716C461.725 190.716 457.777 193.782 457.777 198.15C457.777 202.602 461.725 205.626 467.269 205.626C472.813 205.626 476.761 202.602 476.761 198.15ZM466.933 207.726H461.389V218.94H487.723V214.53H466.933V207.726ZM486.337 192.732V180.93H480.793V209.868H486.337V197.31H491.461V192.732H486.337ZM535.902 180.93H530.316V200.292H535.902V180.93ZM509.694 190.884C509.694 188.154 511.836 186.516 514.692 186.516C517.548 186.516 519.606 188.154 519.606 190.884C519.606 193.656 517.548 195.252 514.692 195.252C511.836 195.252 509.694 193.656 509.694 190.884ZM524.982 190.884C524.982 185.76 520.572 182.064 514.692 182.064C508.77 182.064 504.318 185.76 504.318 190.884C504.318 196.05 508.77 199.746 514.692 199.746C520.572 199.746 524.982 196.05 524.982 190.884ZM515.658 214.866V212.43H535.902V201.888H510.114V206.13H530.4V208.482H510.156V219.15H536.868V214.866H515.658ZM565.634 198.066C559.544 196.176 556.94 191.64 556.94 186.978V183.03H551.312V186.516C551.312 191.766 548.708 196.932 542.24 199.074L545.138 203.442C549.548 201.888 552.53 198.906 554.21 195.126C555.848 198.402 558.662 201.006 562.736 202.35L565.634 198.066ZM560.636 215.328C555.68 215.328 553.034 214.32 553.034 212.136C553.034 209.994 555.68 208.986 560.636 208.986C565.55 208.986 568.196 209.994 568.196 212.136C568.196 214.32 565.55 215.328 560.636 215.328ZM560.636 204.702C552.572 204.702 547.532 207.474 547.532 212.136C547.532 216.84 552.572 219.612 560.636 219.612C568.658 219.612 573.698 216.84 573.698 212.136C573.698 207.474 568.658 204.702 560.636 204.702ZM573.278 189.918V180.972H567.734V203.82H573.278V194.496H578.402V189.918H573.278ZM599.315 184.668C605.489 184.668 609.017 186.096 609.017 188.616C609.017 191.136 605.489 192.564 599.315 192.564C593.141 192.564 589.613 191.136 589.613 188.616C589.613 186.096 593.141 184.668 599.315 184.668ZM599.315 195.126C607.589 195.126 612.545 192.858 612.545 188.616C612.545 184.374 607.589 182.064 599.315 182.064C591.041 182.064 586.085 184.374 586.085 188.616C586.085 192.858 591.041 195.126 599.315 195.126ZM589.865 212.178H611.999V203.694H586.379V206.298H608.597V209.658H586.505V218.688H613.133V216H589.865V212.178ZM582.263 197.688V200.46H616.367V197.688H582.263ZM639.007 188.154H655.681V198.402H639.007V188.154ZM650.137 210.624V202.77H661.099V183.786H633.589V202.77H644.593V210.624H629.893V215.118H664.921V210.624H650.137ZM699.946 194.622H679.03V187.398H699.526V182.988H673.36V199.032H699.946V194.622ZM703.978 202.812H668.908V207.306H683.566V219.57H689.11V207.306H703.978V202.812ZM713.047 192.732C713.047 189.204 715.819 186.768 719.683 186.768C723.505 186.768 726.277 189.204 726.277 192.732C726.277 196.302 723.505 198.654 719.683 198.654C715.819 198.654 713.047 196.302 713.047 192.732ZM721.405 201.468C726.235 200.838 729.637 197.436 729.637 192.732C729.637 187.44 725.437 183.87 719.683 183.87C713.845 183.87 709.687 187.44 709.687 192.732C709.687 197.436 713.047 200.88 717.961 201.468V207.978C714.433 208.062 710.989 208.104 708.007 208.104L708.469 211.002C715.105 211.002 723.883 210.876 731.863 209.532L731.569 207.012C728.335 207.474 724.849 207.684 721.405 207.852V201.468ZM743.371 196.974H737.407V181.392H733.963V219.108H737.407V199.872H743.371V196.974ZM761.431 185.088H758.029V209.574H761.011C766.765 209.574 772.519 209.154 778.945 207.852L778.525 204.996C772.435 206.214 766.849 206.676 761.431 206.676V185.088ZM791.545 196.47H785.497V181.434H782.053V219.108H785.497V199.326H791.545V196.47ZM817.371 193.194H802.251V183.45H798.807V195.966H817.371V193.194ZM819.933 199.914C811.911 200.712 802.797 200.796 795.237 200.796L795.699 203.694C798.849 203.694 802.293 203.652 805.863 203.526V217.974H809.307V203.4C812.919 203.19 816.615 202.938 820.143 202.476L819.933 199.914ZM822.957 181.476V206.844H814.431V209.574H822.957V219.15H826.401V181.476H822.957ZM846.432 202.56C847.986 202.938 849.792 203.148 851.64 203.148C853.53 203.148 855.336 202.938 856.932 202.56V211.422H846.432V202.56ZM851.64 186.516C857.688 186.516 862.056 189.288 862.056 193.488C862.056 197.688 857.688 200.46 851.64 200.46C845.592 200.46 841.266 197.688 841.266 193.488C841.266 189.288 845.592 186.516 851.64 186.516ZM860.376 211.422V201.216C863.484 199.578 865.332 196.89 865.332 193.488C865.332 187.608 859.662 183.828 851.64 183.828C843.66 183.828 837.948 187.608 837.948 193.488C837.948 196.89 839.838 199.62 842.988 201.258V211.422H834.588V214.278H868.818V211.422H860.376Z" fill="white"/>
<path d="M319.819 399H340.983V354.703H363.87L387.167 399H411.284L385.444 351.504C399.226 346.5 407.757 333.621 407.757 317.707V317.543C407.757 294.656 392.335 280.629 367.069 280.629H319.819V399ZM340.983 337.969V297.773H364.444C377.733 297.773 386.101 305.32 386.101 317.707V317.871C386.101 330.586 378.226 337.969 364.855 337.969H340.983ZM462.183 400.723C484.906 400.723 497.702 387.27 500.41 373.898L500.656 372.996H481.542L481.378 373.57C479.41 379.395 472.765 384.809 462.593 384.809C449.304 384.809 440.937 375.785 440.609 360.527H501.476V353.965C501.476 327.715 486.054 310.242 461.199 310.242C436.343 310.242 420.347 328.289 420.347 355.688V355.77C420.347 383.414 436.097 400.723 462.183 400.723ZM461.445 326.238C472.273 326.238 480.148 333.129 481.624 346.91H440.855C442.495 333.539 450.617 326.238 461.445 326.238ZM554.754 400.723C576.738 400.723 591.422 386.941 592.98 368.812L593.062 368.238H573.785L573.621 368.977C571.734 378.082 565.172 384.234 554.836 384.234C541.957 384.234 533.59 373.734 533.59 355.605V355.523C533.59 337.723 541.875 326.812 554.754 326.812C565.582 326.812 571.816 333.621 573.539 342.07L573.703 342.809H592.98L592.898 342.152C591.668 324.762 577.394 310.242 554.507 310.242C529.16 310.242 512.754 327.633 512.754 355.359V355.441C512.754 383.332 528.914 400.723 554.754 400.723ZM645.438 400.723C670.949 400.723 687.52 383.742 687.52 355.523V355.359C687.52 327.305 670.703 310.242 645.355 310.242C620.09 310.242 603.355 327.469 603.355 355.359V355.523C603.355 383.66 619.844 400.723 645.438 400.723ZM645.52 384.234C632.477 384.234 624.191 373.816 624.191 355.523V355.359C624.191 337.312 632.641 326.812 645.355 326.812C658.316 326.812 666.684 337.23 666.684 355.359V355.523C666.684 373.734 658.398 384.234 645.52 384.234ZM734.645 400.723C747.196 400.723 756.793 394.488 761.715 384.234H762.207V399H782.633V280.629H762.207V326.977H761.715C756.793 316.559 746.867 310.242 734.563 310.242C712.742 310.242 698.715 327.387 698.715 355.441V355.523C698.715 383.496 712.66 400.723 734.645 400.723ZM740.797 383.496C727.672 383.496 719.551 372.832 719.551 355.523V355.441C719.551 338.133 727.754 327.469 740.797 327.469C753.348 327.469 762.207 338.461 762.207 355.441V355.523C762.207 372.586 753.43 383.496 740.797 383.496ZM812.286 299.578C818.684 299.578 823.606 294.492 823.606 288.422C823.606 282.188 818.684 277.184 812.286 277.184C805.887 277.184 800.883 282.188 800.883 288.422C800.883 294.492 805.887 299.578 812.286 299.578ZM802.032 399H822.458V312.047H802.032V399ZM873.849 400.723C877.95 400.723 881.56 400.312 883.938 399.984V384.645C882.544 384.727 880.985 384.973 879.017 384.973C871.552 384.973 867.778 382.266 867.778 373.734V327.797H883.938V312.047H867.778V289.98H847.024V312.047H834.72V327.797H847.024V375.457C847.024 393.34 855.638 400.723 873.849 400.723Z" fill="white"/>
<circle cx="812" cy="288" r="12" fill="#F33D63"/>
</svg>
