<svg width="129" height="129" viewBox="0 0 129 129" fill="none" xmlns="http://www.w3.org/2000/svg">
<rect y="69.4141" width="9.82857" height="29.4857" rx="4.91429" transform="rotate(-90 0 69.4141)" fill="#D9D9D9"/>
<rect y="69.4141" width="9.82857" height="29.4857" rx="4.91429" transform="rotate(-90 0 69.4141)" fill="#9F7DE9"/>
<rect x="11.0986" y="101.005" width="9.82857" height="29.4857" rx="4.91429" transform="rotate(-120 11.0986 101.005)" fill="#9067E5"/>
<rect x="97.2803" y="51.2485" width="9.82857" height="29.4857" rx="4.91429" transform="rotate(-120 97.2803 51.2485)" fill="#EFE9FB"/>
<rect x="36.5063" y="122.816" width="9.82857" height="29.4857" rx="4.91429" transform="rotate(-150 36.5063 122.816)" fill="#9067E5"/>
<rect x="86.2632" y="36.6338" width="9.82857" height="29.4857" rx="4.91429" transform="rotate(-150 86.2632 36.6338)" fill="#DFD4F8"/>
<rect x="59.5859" width="9.82857" height="29.4857" rx="4.91429" fill="#CFBEF4"/>
<rect x="59.5859" y="99.5142" width="9.82857" height="29.4857" rx="4.91429" fill="#8052E1"/>
<rect x="27.9946" y="11.0986" width="9.82857" height="29.4857" rx="4.91429" transform="rotate(-30 27.9946 11.0986)" fill="#BFA8F0"/>
<rect x="77.7515" y="97.2803" width="9.82857" height="29.4857" rx="4.91429" transform="rotate(-30 77.7515 97.2803)" fill="#703CDE"/>
<rect x="6.18408" y="36.5054" width="9.82857" height="29.4857" rx="4.91429" transform="rotate(-60 6.18408 36.5054)" fill="#AF93EC"/>
<rect x="92.3667" y="86.2627" width="9.82857" height="29.4857" rx="4.91429" transform="rotate(-60 92.3667 86.2627)" fill="#6026DA"/>
</svg>
